<svg width="350" height="89" viewBox="0 0 350 89" fill="none" xmlns="http://www.w3.org/2000/svg">
<g filter="url(#filter0_d)">
<path d="M7.40625 1H23.4062V81H7.40625V1Z" fill="#B66317"/>
<path d="M41.4062 1H57.4062V81H41.4062V1Z" fill="#B66317"/>
<path d="M75.4062 1H91.4062V81H75.4062V1Z" fill="#B66317"/>
</g>
<g filter="url(#filter1_d)">
<path d="M15.4063 4L16.5288 7.45492H20.1615L17.2226 9.59017L18.3452 13.0451L15.4063 10.9098L12.4673 13.0451L13.5899 9.59017L10.651 7.45492H14.2837L15.4063 4Z" fill="white"/>
<path d="M32.4063 4L33.5288 7.45492H37.1615L34.2226 9.59017L35.3452 13.0451L32.4063 10.9098L29.4673 13.0451L30.5899 9.59017L27.651 7.45492H31.2837L32.4063 4Z" fill="white"/>
<path d="M49.4063 4L50.5288 7.45492H54.1615L51.2226 9.59017L52.3452 13.0451L49.4063 10.9098L46.4673 13.0451L47.5899 9.59017L44.651 7.45492H48.2837L49.4063 4Z" fill="white"/>
<path d="M66.4063 4L67.5288 7.45492H71.1615L68.2226 9.59017L69.3452 13.0451L66.4063 10.9098L63.4673 13.0451L64.5899 9.59017L61.651 7.45492H65.2837L66.4063 4Z" fill="white"/>
<path d="M83.4063 4L84.5288 7.45492H88.1615L85.2226 9.59017L86.3452 13.0451L83.4063 10.9098L80.4673 13.0451L81.5899 9.59017L78.651 7.45492H82.2837L83.4063 4Z" fill="white"/>
<path d="M100.406 4L101.529 7.45492H105.162L102.223 9.59017L103.345 13.0451L100.406 10.9098L97.4673 13.0451L98.5899 9.59017L95.651 7.45492H99.2837L100.406 4Z" fill="white"/>
<path d="M117.406 4L118.529 7.45492H122.162L119.223 9.59017L120.345 13.0451L117.406 10.9098L114.467 13.0451L115.59 9.59017L112.651 7.45492H116.284L117.406 4Z" fill="white"/>
<path d="M134.406 4L135.529 7.45492H139.162L136.223 9.59017L137.345 13.0451L134.406 10.9098L131.467 13.0451L132.59 9.59017L129.651 7.45492H133.284L134.406 4Z" fill="white"/>
<path d="M151.406 4L152.529 7.45492H156.162L153.223 9.59017L154.345 13.0451L151.406 10.9098L148.467 13.0451L149.59 9.59017L146.651 7.45492H150.284L151.406 4Z" fill="white"/>
<path d="M168.406 4L169.529 7.45492H173.162L170.223 9.59017L171.345 13.0451L168.406 10.9098L165.467 13.0451L166.59 9.59017L163.651 7.45492H167.284L168.406 4Z" fill="white"/>
</g>
<g filter="url(#filter2_d)">
<path d="M144.406 71L145.529 74.4549H149.162L146.223 76.5902L147.345 80.0451L144.406 77.9098L141.467 80.0451L142.59 76.5902L139.651 74.4549H143.284L144.406 71Z" fill="white"/>
<path d="M161.406 71L162.529 74.4549H166.162L163.223 76.5902L164.345 80.0451L161.406 77.9098L158.467 80.0451L159.59 76.5902L156.651 74.4549H160.284L161.406 71Z" fill="white"/>
<path d="M178.406 71L179.529 74.4549H183.162L180.223 76.5902L181.345 80.0451L178.406 77.9098L175.467 80.0451L176.59 76.5902L173.651 74.4549H177.284L178.406 71Z" fill="white"/>
<path d="M195.406 71L196.529 74.4549H200.162L197.223 76.5902L198.345 80.0451L195.406 77.9098L192.467 80.0451L193.59 76.5902L190.651 74.4549H194.284L195.406 71Z" fill="white"/>
<path d="M212.406 71L213.529 74.4549H217.162L214.223 76.5902L215.345 80.0451L212.406 77.9098L209.467 80.0451L210.59 76.5902L207.651 74.4549H211.284L212.406 71Z" fill="white"/>
<path d="M229.406 71L230.529 74.4549H234.162L231.223 76.5902L232.345 80.0451L229.406 77.9098L226.467 80.0451L227.59 76.5902L224.651 74.4549H228.284L229.406 71Z" fill="white"/>
<path d="M246.406 71L247.529 74.4549H251.162L248.223 76.5902L249.345 80.0451L246.406 77.9098L243.467 80.0451L244.59 76.5902L241.651 74.4549H245.284L246.406 71Z" fill="white"/>
<path d="M263.406 71L264.529 74.4549H268.162L265.223 76.5902L266.345 80.0451L263.406 77.9098L260.467 80.0451L261.59 76.5902L258.651 74.4549H262.284L263.406 71Z" fill="white"/>
<path d="M280.406 71L281.529 74.4549H285.162L282.223 76.5902L283.345 80.0451L280.406 77.9098L277.467 80.0451L278.59 76.5902L275.651 74.4549H279.284L280.406 71Z" fill="white"/>
<path d="M297.406 71L298.529 74.4549H302.162L299.223 76.5902L300.345 80.0451L297.406 77.9098L294.467 80.0451L295.59 76.5902L292.651 74.4549H296.284L297.406 71Z" fill="white"/>
</g>
<g filter="url(#filter3_d)">
<path d="M48.4688 29.5625L48.3125 29.5312L33.5938 66H29.5L14.7812 29.5625L14.625 29.5938L15.25 48V61.1875L20.3438 62.0625V66H4V62.0625L9.09375 61.1875V25.3438L4 24.4688V20.5H9.09375H16.9688L31.4688 57.4688H31.6562L46.125 20.5H59.125V24.4688L54.0312 25.3438V61.1875L59.125 62.0625V66H42.7812V62.0625L47.875 61.1875V48L48.4688 29.5625Z" fill="white"/>
<path d="M63.5312 24.4688V20.5H79.875V24.4688L74.7812 25.3438V61.1875L79.875 62.0625V66H63.5312V62.0625L68.625 61.1875V25.3438L63.5312 24.4688Z" fill="white"/>
<path d="M84.25 66V62.0625L89.3438 61.1875V25.3438L84.25 24.4688V20.5H89.3438H95.5H100.594V24.4688L95.5 25.3438V61.1875H111.312L111.781 55.9688H117.031V66H84.25Z" fill="white"/>
<path d="M121.719 24.4688V20.5H138.062V24.4688L132.969 25.3438V61.1875L138.062 62.0625V66H121.719V62.0625L126.812 61.1875V25.3438L121.719 24.4688Z" fill="white"/>
<path d="M179.188 20.5V30.5625H173.938L173.469 25.3438H163.375V61.1875L168.469 62.0625V66H152.125V62.0625L157.219 61.1875V25.3438H147.094L146.656 30.5625H141.375V20.5H179.188Z" fill="white"/>
<path d="M176.438 62.0625L179.812 61.5938L195.719 20.5H201L216.625 61.5938L219.969 62.0625V66H206.906V62.0625L210.344 61.4688L207.344 53.0938H189.125L186.031 61.4688L189.469 62.0625V66H176.438V62.0625ZM191.031 47.9375H205.469L198.406 28.4062H198.219L191.031 47.9375Z" fill="white"/>
<path d="M243.781 20.5312C248.74 20.5312 252.542 21.6354 255.188 23.8438C257.833 26.0312 259.156 29.1458 259.156 33.1875C259.156 35.3958 258.542 37.3542 257.312 39.0625C256.083 40.7708 254.323 42.1146 252.031 43.0938C254.51 43.9062 256.292 45.2292 257.375 47.0625C258.479 48.8958 259.031 51.1562 259.031 53.8438V57.5C259.031 58.8958 259.208 59.9271 259.562 60.5938C259.917 61.2604 260.5 61.6562 261.312 61.7812L262.812 61.9688V66H259.5C257.104 66 255.396 65.1667 254.375 63.5C253.375 61.8333 252.875 59.8125 252.875 57.4375V53.9062C252.875 51.4271 252.156 49.4375 250.719 47.9375C249.281 46.4375 247.354 45.6875 244.938 45.6875H235.062V61.1875L240.156 62.0625V66H223.812V62.0625L228.906 61.1875V25.3438L223.812 24.4688V20.5312H228.906H243.781ZM235.062 40.8438H243.156C246.594 40.8438 249.094 40.1875 250.656 38.875C252.219 37.5625 253 35.6458 253 33.125C253 30.7292 252.25 28.8333 250.75 27.4375C249.25 26.0417 246.927 25.3438 243.781 25.3438H235.062V40.8438Z" fill="white"/>
<path d="M279.125 24.4688L274.219 25.0625L283.75 43.625L293.281 25.0625L288.406 24.4688V20.5H304.031V24.4688L300.188 25.0625L286.688 50V61.1875L291.781 62.0625V66H275.469V62.0625L280.562 61.1875V49.5312L267.312 25.0625L263.5 24.4688V20.5H279.125V24.4688Z" fill="white"/>
</g>
<g filter="url(#filter4_d)">
<path d="M320.006 33H316.736V11.3262L310.18 13.7344V10.7812L319.496 7.2832H320.006V33Z" fill="white"/>
<path d="M345.582 22.084C345.582 25.8926 344.932 28.7227 343.631 30.5742C342.33 32.4258 340.297 33.3516 337.531 33.3516C334.801 33.3516 332.779 32.4492 331.467 30.6445C330.154 28.8281 329.475 26.1211 329.428 22.5234V18.1816C329.428 14.4199 330.078 11.625 331.379 9.79688C332.68 7.96875 334.719 7.05469 337.496 7.05469C340.25 7.05469 342.277 7.93945 343.578 9.70898C344.879 11.4668 345.547 14.1855 345.582 17.8652V22.084ZM342.33 17.6367C342.33 14.8828 341.943 12.8789 341.17 11.625C340.396 10.3594 339.172 9.72656 337.496 9.72656C335.832 9.72656 334.619 10.3535 333.857 11.6074C333.096 12.8613 332.703 14.7891 332.68 17.3906V22.5938C332.68 25.3594 333.078 27.4043 333.875 28.7285C334.684 30.041 335.902 30.6973 337.531 30.6973C339.137 30.6973 340.326 30.0762 341.1 28.834C341.885 27.5918 342.295 25.6348 342.33 22.9629V17.6367Z" fill="white"/>
</g>
<defs>
<filter id="filter0_d" x="6.40625" y="0" width="92" height="88" filterUnits="userSpaceOnUse" color-interpolation-filters="sRGB">
<feFlood flood-opacity="0" result="BackgroundImageFix"/>
<feColorMatrix in="SourceAlpha" type="matrix" values="0 0 0 0 0 0 0 0 0 0 0 0 0 0 0 0 0 0 127 0"/>
<feOffset dx="3" dy="3"/>
<feGaussianBlur stdDeviation="2"/>
<feColorMatrix type="matrix" values="0 0 0 0 0 0 0 0 0 0 0 0 0 0 0 0 0 0 0.25 0"/>
<feBlend mode="normal" in2="BackgroundImageFix" result="effect1_dropShadow"/>
<feBlend mode="normal" in="SourceGraphic" in2="effect1_dropShadow" result="shape"/>
</filter>
<filter id="filter1_d" x="6.65097" y="4" width="170.511" height="17.0451" filterUnits="userSpaceOnUse" color-interpolation-filters="sRGB">
<feFlood flood-opacity="0" result="BackgroundImageFix"/>
<feColorMatrix in="SourceAlpha" type="matrix" values="0 0 0 0 0 0 0 0 0 0 0 0 0 0 0 0 0 0 127 0"/>
<feOffset dy="4"/>
<feGaussianBlur stdDeviation="2"/>
<feColorMatrix type="matrix" values="0 0 0 0 0 0 0 0 0 0 0 0 0 0 0 0 0 0 0.25 0"/>
<feBlend mode="normal" in2="BackgroundImageFix" result="effect1_dropShadow"/>
<feBlend mode="normal" in="SourceGraphic" in2="effect1_dropShadow" result="shape"/>
</filter>
<filter id="filter2_d" x="135.651" y="71" width="170.511" height="17.0451" filterUnits="userSpaceOnUse" color-interpolation-filters="sRGB">
<feFlood flood-opacity="0" result="BackgroundImageFix"/>
<feColorMatrix in="SourceAlpha" type="matrix" values="0 0 0 0 0 0 0 0 0 0 0 0 0 0 0 0 0 0 127 0"/>
<feOffset dy="4"/>
<feGaussianBlur stdDeviation="2"/>
<feColorMatrix type="matrix" values="0 0 0 0 0 0 0 0 0 0 0 0 0 0 0 0 0 0 0.25 0"/>
<feBlend mode="normal" in2="BackgroundImageFix" result="effect1_dropShadow"/>
<feBlend mode="normal" in="SourceGraphic" in2="effect1_dropShadow" result="shape"/>
</filter>
<filter id="filter3_d" x="0" y="20.5" width="308.031" height="53.5" filterUnits="userSpaceOnUse" color-interpolation-filters="sRGB">
<feFlood flood-opacity="0" result="BackgroundImageFix"/>
<feColorMatrix in="SourceAlpha" type="matrix" values="0 0 0 0 0 0 0 0 0 0 0 0 0 0 0 0 0 0 127 0"/>
<feOffset dy="4"/>
<feGaussianBlur stdDeviation="2"/>
<feColorMatrix type="matrix" values="0 0 0 0 0 0 0 0 0 0 0 0 0 0 0 0 0 0 0.25 0"/>
<feBlend mode="normal" in2="BackgroundImageFix" result="effect1_dropShadow"/>
<feBlend mode="normal" in="SourceGraphic" in2="effect1_dropShadow" result="shape"/>
</filter>
<filter id="filter4_d" x="306.18" y="7.05469" width="43.4023" height="34.2969" filterUnits="userSpaceOnUse" color-interpolation-filters="sRGB">
<feFlood flood-opacity="0" result="BackgroundImageFix"/>
<feColorMatrix in="SourceAlpha" type="matrix" values="0 0 0 0 0 0 0 0 0 0 0 0 0 0 0 0 0 0 127 0"/>
<feOffset dy="4"/>
<feGaussianBlur stdDeviation="2"/>
<feColorMatrix type="matrix" values="0 0 0 0 0 0 0 0 0 0 0 0 0 0 0 0 0 0 0.25 0"/>
<feBlend mode="normal" in2="BackgroundImageFix" result="effect1_dropShadow"/>
<feBlend mode="normal" in="SourceGraphic" in2="effect1_dropShadow" result="shape"/>
</filter>
</defs>
</svg>
